<?xml version="1.0" standalone="no"?>
<!DOCTYPE svg PUBLIC "-//W3C//DTD SVG 20010904//EN"
 "http://www.w3.org/TR/2001/REC-SVG-20010904/DTD/svg10.dtd">
<svg version="1.0" xmlns="http://www.w3.org/2000/svg"
 width="512.000000pt" height="512.000000pt" viewBox="0 0 512.000000 512.000000"
 preserveAspectRatio="xMidYMid meet">
<metadata>
Created by potrace 1.14, written by Peter Selinger 2001-2017
</metadata>
<g transform="translate(0.000000,512.000000) scale(0.100000,-0.100000)"
fill="#000000" stroke="none">
<path d="M2450 5101 c-100 -32 -162 -77 -214 -155 -137 -206 -62 -473 161
-579 62 -29 76 -32 163 -31 81 0 104 4 152 26 79 36 122 72 168 136 139 194
70 471 -145 579 -83 42 -199 51 -285 24z"/>
<path d="M1825 4676 c-33 -13 -69 -27 -80 -31 -342 -133 -668 -367 -901 -645
-138 -166 -284 -407 -356 -589 -40 -102 -68 -188 -68 -211 0 -38 34 -70 74
-70 43 0 61 21 90 106 147 432 443 815 826 1068 107 71 337 185 455 226 50 17
98 40 108 51 40 48 5 120 -57 118 -17 -1 -58 -11 -91 -23z"/>
<path d="M3152 4680 c-27 -26 -29 -80 -4 -103 9 -9 58 -30 107 -47 121 -42
350 -156 455 -226 167 -111 355 -281 469 -424 28 -36 56 -70 61 -77 86 -106
233 -385 290 -548 37 -106 52 -125 96 -125 40 0 74 32 74 70 0 28 -36 135 -85
250 -69 166 -217 406 -333 543 -36 43 -249 256 -289 289 -165 138 -429 293
-623 366 -30 11 -74 27 -98 36 -57 21 -94 20 -120 -4z"/>
<path d="M2390 3993 c-134 -14 -272 -109 -334 -230 -65 -129 -66 -262 -4 -393
21 -42 33 -84 35 -119 6 -106 49 -207 121 -288 l38 -42 -2 -88 c-1 -102 -6
-123 -33 -140 -11 -7 -106 -46 -213 -88 -106 -43 -209 -89 -228 -103 -68 -50
-114 -112 -142 -188 -20 -56 -22 -78 -23 -437 -2 -408 -2 -407 52 -428 18 -7
33 -5 55 5 29 15 31 14 71 -25 23 -22 62 -52 87 -67 25 -14 47 -27 49 -28 2
-2 5 -22 6 -45 4 -51 32 -82 74 -82 33 0 71 27 71 51 0 9 6 12 15 8 46 -17
211 -51 300 -61 51 -6 322 -7 355 -1 14 2 59 10 100 16 41 6 104 20 139 31 75
23 71 22 71 6 0 -18 29 -43 59 -50 50 -12 91 31 87 93 -1 20 10 32 54 61 30
20 73 52 94 72 27 25 43 34 51 27 37 -31 100 -12 114 34 10 33 8 733 -3 777
-10 45 -37 102 -68 145 -51 72 -112 108 -318 189 -111 43 -205 87 -219 100
-22 22 -25 32 -26 120 l-1 96 38 42 c72 80 114 180 122 290 3 34 16 80 35 119
96 203 30 437 -158 557 -82 53 -129 63 -316 65 -93 1 -186 1 -205 -1z"/>
<path d="M350 2952 c-159 -23 -288 -133 -334 -285 -19 -64 -13 -179 13 -249
72 -189 284 -292 482 -235 67 20 163 88 201 143 57 83 72 132 73 234 0 87 -3
101 -32 163 -73 154 -245 252 -403 229z"/>
<path d="M4660 2949 c-100 -15 -199 -79 -259 -168 -109 -160 -88 -368 49 -501
258 -252 683 -57 665 304 -11 229 -225 401 -455 365z"/>
<path d="M440 1968 c-26 -29 -25 -56 6 -147 192 -555 620 -1032 1151 -1282
121 -57 290 -119 324 -119 39 0 69 32 69 73 0 45 -19 60 -125 98 -395 139
-742 398 -1001 749 -100 135 -215 356 -274 525 -17 49 -38 98 -47 107 -23 25
-77 23 -103 -4z"/>
<path d="M4578 1973 c-9 -10 -30 -58 -48 -108 -106 -296 -294 -590 -512 -800
-91 -87 -103 -98 -199 -171 -150 -116 -380 -239 -564 -304 -106 -37 -125 -52
-125 -97 0 -41 30 -73 69 -73 39 0 220 68 356 135 111 55 354 208 406 257 14
13 39 34 55 47 64 50 205 194 280 286 59 71 144 193 144 205 0 6 5 10 10 10 6
0 10 4 10 10 0 5 15 33 33 62 81 127 207 426 207 489 0 16 -9 38 -20 49 -25
25 -81 27 -102 3z"/>
<path d="M2424 764 c-99 -40 -154 -88 -211 -184 -85 -142 -49 -351 81 -473 72
-68 147 -98 255 -102 221 -9 401 166 403 390 1 110 -32 193 -110 273 -109 112
-282 152 -418 96z"/>
</g>
</svg>
